<!DOCTYPE svg PUBLIC "-//W3C//DTD SVG 20010904//EN" "http://www.w3.org/TR/2001/REC-SVG-20010904/DTD/svg10.dtd">
<svg version="1.0" xmlns="http://www.w3.org/2000/svg" width="179px" height="59px" viewBox="0 0 1790 590" preserveAspectRatio="xMidYMid meet">
<g id="layer101" fill="#376273" stroke="none">
 <path d="M0 295 l0 -295 895 0 895 0 0 295 0 295 -895 0 -895 0 0 -295z"/>
 </g>
<g id="layer102" fill="#ffffff" stroke="none">
 <path d="M650 508 c0 -7 13 -36 29 -64 l28 -52 -45 16 c-42 14 -48 14 -74 -1 -25 -15 -32 -15 -74 0 -43 15 -49 15 -78 -1 -29 -15 -34 -15 -64 -1 -18 10 -41 14 -53 10 -31 -10 -21 -59 40 -188 40 -83 56 -107 71 -107 11 0 20 5 20 11 0 5 -22 57 -50 115 -27 58 -50 109 -50 114 0 25 46 -4 65 -41 31 -59 123 -91 144 -50 13 24 -15 63 -59 81 -28 11 -41 30 -21 30 33 0 73 -26 88 -57 28 -60 113 -94 143 -58 17 21 -10 60 -55 82 -35 17 -46 33 -22 33 38 -1 97 -41 117 -79 18 -37 50 -56 50 -31 0 6 13 4 30 -5 37 -19 64 -19 80 0 14 17 -1 46 -42 84 -39 37 -12 32 46 -9 53 -37 76 -43 76 -20 0 15 -109 88 -141 95 -29 7 -59 -7 -59 -26 0 -5 19 -30 41 -54 29 -31 37 -45 25 -45 -29 0 -76 55 -119 140 -32 64 -47 86 -64 88 -14 2 -23 -2 -23 -10z m-150 -198 c14 -10 21 -22 17 -26 -4 -4 -20 4 -35 19 -31 31 -19 36 18 7z m151 1 c13 -11 20 -23 16 -27 -4 -4 -20 4 -35 19 -30 31 -16 37 19 8z"/>
 <path d="M1387 474 c-3 -4 0 -21 8 -40 l14 -33 -25 11 c-18 8 -31 8 -49 0 -18 -8 -40 -8 -82 -1 -120 23 -220 -10 -193 -62 13 -23 66 -25 93 -4 18 13 23 5 82 -115 45 -90 70 -130 85 -135 12 -4 24 -4 28 -1 10 10 -16 74 -72 176 -28 52 -53 98 -54 103 -2 4 7 6 20 3 12 -3 35 -7 49 -10 18 -4 32 -19 49 -56 16 -33 30 -50 42 -50 22 0 23 19 1 65 -9 19 -14 38 -10 42 11 10 55 -17 73 -45 15 -23 15 -26 0 -34 -20 -11 -12 -28 14 -28 11 0 26 -12 34 -27 21 -41 58 -72 94 -79 27 -6 33 -3 43 20 11 23 10 29 -5 44 -16 16 -17 16 -22 -6 -4 -12 -9 -22 -12 -22 -10 0 -62 53 -62 63 0 6 27 7 68 3 56 -6 71 -4 82 9 17 21 -9 60 -55 82 -35 17 -46 33 -22 33 6 0 35 -11 64 -24 48 -23 63 -24 63 -5 0 11 -65 47 -109 60 -55 16 -91 -6 -91 -56 0 -18 5 -37 10 -40 17 -10 11 -25 -10 -25 -16 0 -29 20 -60 87 -44 94 -63 117 -83 97z m-257 -104 c-8 -5 -19 -10 -25 -10 -5 0 -3 5 5 10 8 5 20 10 25 10 6 0 3 -5 -5 -10z m491 -59 c13 -11 20 -23 16 -27 -4 -4 -20 4 -35 19 -30 31 -16 37 19 8z"/>
 <path d="M117 410 c-64 -19 -74 -54 -26 -94 30 -26 69 -35 69 -17 0 6 -10 17 -21 25 -31 21 -18 46 23 46 37 0 78 -24 78 -45 0 -8 -20 -28 -45 -45 -83 -57 -92 -96 -34 -144 67 -57 159 -57 159 -1 0 41 -57 84 -75 56 -3 -5 2 -16 10 -24 8 -9 15 -20 15 -26 0 -15 -61 6 -85 30 l-20 21 40 31 c79 63 97 85 90 109 -11 36 -45 67 -84 78 -42 11 -56 11 -94 0z"/>
 <path d="M1392 232 c-20 -13 -3 -42 24 -42 28 0 34 34 8 44 -19 7 -16 7 -32 -2z"/>
 </g>

</svg>