<!DOCTYPE svg PUBLIC "-//W3C//DTD SVG 20010904//EN" "http://www.w3.org/TR/2001/REC-SVG-20010904/DTD/svg10.dtd">
<svg version="1.0" xmlns="http://www.w3.org/2000/svg" width="177px" height="48px" viewBox="0 0 1770 480" preserveAspectRatio="xMidYMid meet">
<g id="layer101" fill="#000000" stroke="none">
<path d="M643 423 c-4 -10 4 -37 20 -66 21 -39 22 -47 9 -42 -41 16 -89 17 -104 1 -15 -14 -20 -14 -52 -1 -44 19 -77 19 -101 1 -17 -12 -24 -12 -48 1 -36 18 -70 13 -81 -12 -9 -21 -9 -21 -54 2 -52 26 -98 29 -147 9 -37 -16 -45 -39 -25 -77 13 -22 67 -52 80 -44 17 10 11 34 -10 45 -27 15 -25 28 5 36 35 9 85 -14 85 -37 0 -11 -20 -34 -50 -55 -56 -40 -71 -74 -49 -113 27 -49 138 -87 178 -62 23 15 16 63 -13 88 -42 35 -76 11 -39 -29 15 -17 15 -18 -1 -18 -29 0 -76 30 -76 48 0 9 25 35 55 56 34 24 58 50 63 67 6 23 12 15 57 -82 40 -87 54 -109 71 -109 11 0 23 3 26 6 3 3 -19 57 -48 121 -30 63 -53 117 -50 120 9 9 48 -23 62 -52 28 -59 134 -91 149 -45 3 11 3 25 -1 32 -4 7 9 -2 29 -20 29 -25 47 -32 78 -32 27 0 42 5 46 16 10 25 -14 63 -52 81 -47 22 -45 38 3 17 20 -9 43 -18 50 -21 6 -3 21 -25 31 -49 19 -42 42 -56 56 -34 4 7 13 6 26 -1 11 -5 34 -9 52 -7 45 4 47 36 5 84 -35 40 -21 36 41 -10 40 -30 64 -33 59 -9 -5 24 -97 92 -135 99 -72 14 -83 -20 -26 -78 46 -47 38 -60 -11 -17 -22 19 -52 64 -76 114 -34 70 -53 95 -76 95 -3 0 -8 -8 -11 -17z"/>
<path d="M1370 381 c0 -5 4 -20 9 -33 8 -23 7 -24 -20 -20 -16 2 -35 0 -42 -6 -8 -7 -26 -8 -52 -2 -56 13 -159 12 -189 -2 -57 -25 -39 -83 23 -75 20 2 43 7 51 10 11 5 27 -20 65 -100 28 -59 58 -117 68 -130 19 -24 51 -31 62 -13 3 5 -23 67 -59 137 -36 70 -63 129 -61 131 2 2 21 1 42 -2 33 -6 40 -12 56 -51 24 -58 43 -73 63 -53 14 14 14 20 -5 56 -25 49 -25 52 -7 52 8 0 29 -17 47 -37 28 -32 30 -38 15 -41 -24 -5 -16 -36 11 -40 12 -2 32 -19 44 -38 38 -63 123 -87 135 -39 12 49 -26 81 -40 33 -6 -23 -7 -23 -33 7 l-26 30 72 3 c53 2 73 7 78 18 10 25 -15 63 -52 81 -19 9 -35 20 -35 25 0 8 33 -3 80 -27 37 -19 50 -19 50 0 0 32 -117 83 -163 71 -37 -9 -53 -55 -33 -95 16 -29 15 -31 -2 -31 -13 0 -30 26 -63 93 -34 71 -49 93 -66 95 -13 2 -23 -1 -23 -7z"/>
</g>
<g id="layer102" fill="#fdfefe" stroke="none">
<path d="M643 423 c-4 -10 4 -37 20 -66 21 -39 22 -47 9 -42 -41 16 -89 17 -104 1 -15 -14 -20 -14 -52 -1 -44 19 -77 19 -101 1 -17 -12 -24 -12 -48 1 -36 18 -70 13 -81 -12 -9 -21 -9 -21 -54 2 -52 26 -98 29 -147 9 -37 -16 -45 -39 -25 -77 13 -22 67 -52 80 -44 17 10 11 34 -10 45 -27 15 -25 28 5 36 35 9 85 -14 85 -37 0 -11 -20 -34 -50 -55 -56 -40 -71 -74 -49 -113 27 -49 138 -87 178 -62 23 15 16 63 -13 88 -42 35 -76 11 -39 -29 15 -17 15 -18 -1 -18 -29 0 -76 30 -76 48 0 9 25 35 55 56 34 24 58 50 63 67 6 23 12 15 57 -82 40 -87 54 -109 71 -109 11 0 23 3 26 6 3 3 -19 57 -48 121 -30 63 -53 117 -50 120 9 9 48 -23 62 -52 18 -39 62 -65 107 -65 67 0 59 64 -13 97 -22 10 -40 21 -40 26 -1 23 77 -19 94 -51 24 -46 63 -72 108 -72 26 0 41 5 45 16 10 25 -14 63 -52 81 -47 22 -45 38 3 17 20 -9 43 -18 50 -21 6 -3 21 -25 31 -49 19 -42 42 -56 56 -34 4 7 13 6 26 -1 11 -5 34 -9 52 -7 47 4 47 36 0 89 l-38 43 60 -42 c34 -23 67 -42 74 -42 48 0 -66 105 -126 116 -72 14 -83 -20 -26 -78 46 -47 38 -60 -11 -17 -22 19 -52 64 -76 114 -34 70 -53 95 -76 95 -3 0 -8 -8 -11 -17z m-152 -210 l24 -27 -24 15 c-14 9 -27 21 -29 27 -6 19 3 14 29 -15z m169 -14 c0 -6 -7 -6 -20 1 -11 6 -20 15 -20 21 0 6 7 6 20 -1 11 -6 20 -15 20 -21z"/>
<path d="M1370 381 c0 -5 4 -20 9 -33 8 -23 7 -24 -20 -20 -16 2 -35 0 -42 -6 -8 -7 -26 -8 -52 -2 -56 13 -159 12 -189 -2 -57 -25 -39 -83 23 -75 20 2 43 7 51 10 11 5 27 -20 65 -100 28 -59 58 -117 68 -130 19 -24 51 -31 62 -13 3 5 -23 67 -59 137 -36 70 -63 129 -61 131 2 2 21 1 42 -2 33 -6 40 -12 56 -51 24 -58 43 -73 63 -53 14 14 14 20 -5 56 -25 49 -25 52 -7 52 8 0 29 -17 47 -37 28 -32 30 -38 15 -41 -24 -5 -16 -36 11 -40 12 -2 32 -19 44 -38 38 -63 123 -87 135 -39 12 49 -26 81 -40 33 -6 -23 -7 -23 -33 7 l-26 30 72 3 c53 2 73 7 78 18 10 25 -15 63 -52 81 -19 9 -35 20 -35 25 0 8 33 -3 80 -27 37 -19 50 -19 50 0 0 32 -117 83 -163 71 -37 -9 -53 -55 -33 -95 16 -29 15 -31 -2 -31 -13 0 -30 26 -63 93 -34 71 -49 93 -66 95 -13 2 -23 -1 -23 -7z m260 -184 c0 -4 -9 -3 -20 3 -11 6 -20 15 -20 20 0 6 9 5 20 -2 11 -7 20 -16 20 -21z"/>
<path d="M1374 135 c-8 -21 4 -35 31 -35 29 0 41 16 25 35 -16 19 -49 19 -56 0z"/>
</g>


</svg>